<?xml version="1.0" encoding="UTF-8"?><svg id="Layer_2" xmlns="http://www.w3.org/2000/svg" viewBox="0 0 502.76 606.92"><defs><style>.cls-1{fill:#fff;}.cls-2{fill:#d14019;}.cls-3{fill:#ff7955;}</style></defs><g id="Layer_1-2"><g><path class="cls-1" d="M0,566.1l53.76-176.04,4.65-2.97c140.79-90.01,184.43-151.1,195.76-187.2-5.46-32.68-34.64-35.28-43.66-35.28-11.41,0-22.64,3.32-30.79,9.11-21.89,15.53-39.4,61.6-44.3,78.04l-6.46,21.66-17.45-14.36-53-43.64L17.49,147.09l2.45-6.72c13.1-41.88,39.13-70.14,39.13-70.14C96.46,24.87,150.86,0,213.15,0c27.64,0,55.96,5.08,79.73,14.31,38.69,14.82,70.72,42.3,90.13,77.35,19.58,35.35,25.3,75.88,16.76,117.8l.62,.41-3.17,10.53c-1.72,6.59-3.8,13.23-6.19,19.75-.59,1.61-1.18,3.18-1.77,4.74-9.22,27.22-23.25,65.45-37.94,93.54-6.29,12.04-14.95,24.43-24,35.89l147.26-14.73,28.17,205.13-26.3,33.61-422.77,8.58L0,566.1Z"/><path class="cls-2" d="M461.69,375.96l-170.38,17.04c14.69-15.64,35.19-39.45,46.73-61.52,14.63-27.99,28.76-66.98,37.11-91.66,.61-1.6,1.21-3.2,1.81-4.83,2.3-6.29,4.23-12.51,5.83-18.65,.01-.04,.02-.07,.02-.07h0c23.1-88.95-25.74-161.31-95.35-187.98C231.29,6.49,128.84,2.9,66.07,85.53h-.02s-.01,.05-.01,.05c-12.45,16.41-23.35,36.19-32.01,59.92l36.01,59.98,51,42s19-64,50-86c31-22,91.89-15.95,98.44,39.52-12.29,44.41-63.24,109.37-202.98,198.71l-49.1,160.77,41.21,31.33,410.43-8.33,18-23-25.34-184.52Z"/><path class="cls-3" d="M34.03,145.5C86.3,2.16,220.14,2.16,287.45,28.29c74.44,28.52,125.13,109.29,89.5,206.71-41.97,114.03-105.34,159.97-105.34,159.97l190.08-19.01,25.34,184.52H17.4l49.1-160.77c241.55-154.43,217.79-236.01,187.7-264.52-46.16-43.72-98.99,1.59-114.83,18.22-15.06,16.63-31.69,54.65-31.69,54.65l-73.65-62.57Z"/></g></g></svg>