<?xml version="1.0" encoding="UTF-8"?><svg id="Layer_2" xmlns="http://www.w3.org/2000/svg" viewBox="0 0 400.19 626.73"><defs><style>.cls-1{fill:#fff;}.cls-2{fill:#d14019;}.cls-3{fill:#ff7955;}</style></defs><g id="Layer_1-2"><g><g><path class="cls-3" d="M52.19,125.65L177.3,20.12l113.29,1.88-6.62,380.85,86.68-15.15,9.47,174.49-359.51,17.11,7.68-168.99,119.26-6.48,29.34-243.22-39.6,54.33L52.19,125.65Z"/><path class="cls-1" d="M177.3,20.12l113.29,1.88-6.62,380.85,86.68-15.15,9.47,174.49-359.51,17.11,7.68-168.99,119.26-6.48,29.34-243.22-39.6,54.33L52.19,125.65,177.3,20.12M170.13,0l-5.73,4.83L39.29,110.36l-16.25,13.7,14.66,15.38,85.11,89.3,16.53,17.34,8.49-11.65-18.14,150.35-102.5,5.57-18.07,.98-.82,18.08L0,589.85l40.06,36.88,338.5-18.38,21.63-44.24-9.57-177.49-1.22-22.49-22.19,3.88-62.82,10.98,6.2-356.64,.35-20.01-20.01-.33L177.63,.12l-7.5-.12h0Z"/></g><polygon class="cls-2" points="20.62 579.3 48.91 605.22 368.43 587.87 380.13 562.2 20.62 579.3"/></g></g></svg>