<?xml version="1.0" encoding="UTF-8"?><svg id="Layer_2" xmlns="http://www.w3.org/2000/svg" viewBox="0 0 508.05 699.61"><defs><style>.cls-1{fill:#fff;}.cls-2{fill:#d14019;}.cls-3{fill:#ff7955;}</style></defs><g id="Layer_1-2"><g><path class="cls-1" d="M248.58,699.61c-82.2,0-149.48-25.69-152.31-26.78l-.86-.33L0,621.4l124.2-223.13,14.06,14.62c34.89,36.28,63.2,51.76,94.64,51.76,10.33,0,21-1.64,32.62-5.01,25.75-7.58,37.83-26.35,33.63-51.86-18.16-13.82-43.65-16.83-62.4-16.83-21.78,0-39.13,3.99-39.3,4.03l-16.22,3.79-2.09-16.52-5.14-40.95,5.75-88.47,16.68,3.52c.44,.07,3.6,.57,8.49,.57,11.86,0,34.81-2.97,55.22-22.86l.11-.11c2.17-2.07,4.07-4.25,5.66-6.48,1.92-8.01,.03-16.63-5.31-23.94-6.79-9.28-18.01-14.82-30.03-14.82-4.31,0-8.75,.68-13.2,2.03-33.41,10.1-42.46,61.58-42.54,62.1l-5.13,30.41-20.76-22.77-83.29-91.52-30.35-100.95,10.69-5.83c3.77-2.05,93.19-50.44,174.01-59.73,14.26-1.64,27.21-2.44,39.57-2.44,57.38,0,99.24,17.06,144.48,58.88l.15,.14c19.82,18.82,35.03,46.03,42.83,76.6,7.98,31.26,7.33,63.08-1.83,89.59-10.04,28.91-37.03,55.26-57.95,72.3,23.73,8.56,55.45,26.29,80.6,62.92,23.19,34.26,35.92,70,37.9,106.31,.07,.53,.14,1.07,.2,1.6,7.6,67.19-5.19,117.51-39.08,153.84-27.97,29.99-70.01,50.88-136.32,67.72-25.35,6.44-52.92,9.71-81.94,9.71h-.01Z"/><path class="cls-2" d="M491.02,470.03c-.07-.65-.16-1.3-.24-1.95-1.71-33.3-13.21-66.52-35.32-99.17-41.68-60.7-103.29-64.33-103.29-64.33,0,0,63.42-39.87,78.83-84.27,17.22-49.83-.9-115.98-37.15-150.42-48.03-44.4-93.33-61.61-172.16-52.55C142.85,26.4,53.15,75.33,53.15,75.33l25.87,86.03,81,89s10-61,53-74c42.99-13,77.32,23.92,66.67,57.45-2.39,3.77-5.4,7.45-9.08,10.97-35.34,34.43-77.01,26.28-77.01,26.28l-4.54,69.77,4.96,39.53s77.06-18.22,118.79,19.24c8.08,34.39-7.01,63.81-43.11,74.43-56.17,16.3-96.95-3.64-142.26-50.75L20.52,615.38l81.17,43.46s114.96,44.52,225.14,16.52c110.19-28,179.19-72.67,164.19-205.33Z"/><path class="cls-3" d="M52.15,75.33S141.85,26.4,220.69,17.34c78.83-9.06,124.13,8.16,172.16,52.55,36.25,34.43,54.37,100.58,37.15,150.42-15.41,44.4-78.83,84.27-78.83,84.27,0,0,61.61,3.64,103.29,64.33,39.87,58.91,45.31,119.62,20.84,179.41-24.46,58.91-100.57,93.33-212.03,107.84-111.45,15.4-243.75-40.79-243.75-40.79l106.92-192.1c45.31,47.12,86.09,67.05,142.26,50.75,46.21-13.6,57.99-57.99,30.81-104.21-22.66-38.06-111.46-29-111.46-29l4.54-69.77s41.68,8.16,77.01-26.28c39.87-38.07,.92-94.24-48.92-100.58-49.85-6.34-70.69,55.27-70.69,55.27L52.15,75.33Z"/></g></g></svg>