<?xml version="1.0" encoding="UTF-8"?><svg id="Layer_2" xmlns="http://www.w3.org/2000/svg" viewBox="0 0 986.5 594.5"><defs><style>.cls-1{fill:#fff;}.cls-2{fill:#d14019;}.cls-3{fill:#ff7955;}</style></defs><g id="Layer_1-2"><g><g><polygon class="cls-1" points="465.27 275.99 465.27 222.46 502.51 12.07 591.27 7.26 592.06 0 675.54 9.49 740.01 223.38 728.95 276.02 626.09 276.02 622.05 217.8 583.69 217.8 583.69 276.31 465.27 275.99"/><path class="cls-1" d="M389.43,276.02l-25.26-99.88h-4.14l-13.83,99.88h-118.79l-3.69-16.13c-25.29,10.46-54.84,16.13-84.99,16.13h0c-22.53,0-44.66-3.13-65.79-9.31-28.78-8.41-48.98-31.88-58.41-67.85-6.69-25.52-5.62-48.58-5.57-49.55l.09-1.77c-1.38-32.05,11.8-64.39,20-81.19C46.7,29.28,101.52,.24,153.87,.24c1.82,0,3.65,.04,5.45,.11,53.06,2.11,73.45,23.32,75.6,25.73l3.59,4.03-1.25,39.7,5.24-.16,4.65,90.41L329.8,.1l55.19,5.16,105.74,215.98-3.49,54.77h-97.8ZM107.26,129.52c2.07,1.31,5.41,2.54,10.88,2.84l2.55-34.74c-5.52,7.05-10.19,17.24-13.44,31.9Z"/><polygon class="cls-1" points="711.56 273.39 727.2 49.96 736.36 .29 883.26 .94 897.27 36.99 894.58 50.26 904.96 48.98 922.39 113.82 920.7 125.95 938.89 123.89 972.01 223.5 958.25 276.41 711.56 273.39"/><path class="cls-1" d="M132.68,571.69c-61.33,0-94.16-29.78-95.53-31.05l-1.81-1.67-21.31-42.68c-17.6-29.09-18.68-68.85-3.13-115.03,14.31-41.82,31.4-72.06,52.27-92.5,20.17-19.75,43.7-29.76,69.95-29.76,39.54,0,67.16,10.33,84.45,31.58,15.65,19.24,23.01,46.65,23.86,88.88,.11,4.88,.12,9.79,.03,14.59,0,.09,.01,.17,.02,.26,5.55,72.53-2.9,119.08-26.59,146.5-15.86,18.35-38.33,28.3-68.7,30.41-4.53,.31-9.09,.47-13.53,.47h0Zm11.93-178.28c.27,0,.54,.01,.8,.01,11.47,0,19.66-8.74,22.89-24.18-3.37-4.62-7.42-7.28-11.29-7.28-8.16,0-17.19,12.03-18.72,28.84,1.6,1.29,3.71,2.41,6.32,2.61Z"/><polygon class="cls-1" points="290.58 587.49 229.71 324.08 220.1 262.04 350.83 262.04 365.43 303.17 369.81 322.38 387.56 262.04 483.44 262.04 479.02 325.29 404.47 587.49 290.58 587.49"/><polygon class="cls-1" points="214.25 371.11 241.31 370.66 241.36 373.32 214.3 373.78 214.25 371.11"/><polygon class="cls-1" points="214.3 373.94 241.36 373.5 241.39 375.34 214.33 375.76 214.3 373.94"/><polygon class="cls-1" points="214.23 369.53 241.29 369.08 241.31 370.68 214.25 371.11 214.23 369.53"/><polygon class="cls-1" points="214.3 373.54 239.19 373.54 227.83 373.72 214.3 373.95 214.3 373.54"/><polygon class="cls-1" points="214.18 366.42 241.24 365.99 241.29 369.09 214.23 369.53 214.18 366.42"/><rect class="cls-1" x="214.09" y="360.04" width="27.06" height="1.77" transform="translate(-5.54 3.56) rotate(-.88)"/><polygon class="cls-1" points="214.06 358.97 241.11 358.52 241.14 359.83 214.08 360.26 214.06 358.97"/><polygon class="cls-1" points="214.33 375.78 241.39 375.32 241.41 376.89 214.36 377.34 214.33 375.78"/><rect class="cls-1" x="214.14" y="361.8" width="27.06" height="4.4" transform="translate(-5.91 3.76) rotate(-.93)"/><polygon class="cls-1" points="214.39 379.49 241.45 379.33 241.46 379.66 214.39 379.66 227.92 379.66 214.39 379.8 214.39 379.49"/><path class="cls-1" d="M227.93,379.71s0-.03,0-.05c0,.02,0,.03,0,.05Z"/><polygon class="cls-1" points="214.4 379.71 241.46 379.71 214.4 379.74 214.4 379.71"/><polygon class="cls-1" points="214.39 379.22 241.44 378.71 241.45 379.21 214.39 379.78 214.39 379.22"/><polygon class="cls-1" points="214.04 358.27 241.1 357.85 241.11 358.55 214.06 358.96 214.04 358.27"/><path class="cls-1" d="M227.89,377.2s0-.06,0-.09c0,.03,0,.06,0,.09Z"/><polygon class="cls-1" points="214.37 378.4 241.43 377.95 241.44 378.78 214.39 379.21 214.37 378.4"/><polygon class="cls-1" points="214.36 377.43 241.41 376.97 241.42 377.42 214.36 377.91 214.36 377.43"/><polygon class="cls-1" points="214.36 377.85 241.42 377.45 241.43 377.97 214.37 378.4 214.36 377.85"/><polygon class="cls-1" points="213.89 349.06 240.95 348.62 240.96 349.03 213.9 349.38 213.89 349.06"/><path class="cls-1" d="M227.44,349.59s0-.1,0-.14c0,.05,0,.09,0,.14Z"/><path class="cls-1" d="M213.91,349.91l3.33-.05,23.73-.62v.4s-27.05,.33-27.05,.33v-.06Zm0,0v.03s3.23-.08,3.23-.08l-3.23,.05Z"/><polygon class="cls-1" points="213.9 349.36 240.96 348.9 240.96 349.11 219.99 349.59 213.9 349.7 213.9 349.36"/><polygon class="cls-1" points="213.91 350.04 240.97 349.59 240.97 349.87 213.92 350.44 213.91 350.04"/><polygon class="cls-1" points="213.91 350.32 240.97 349.99 240.98 350.23 213.92 350.54 213.91 350.32"/><polygon class="cls-1" points="213.89 348.9 240.95 348.27 240.95 348.63 213.89 349.06 213.89 348.9"/><polygon class="cls-1" points="213.92 350.62 240.98 350.15 240.99 351 213.93 351.41 213.92 350.62"/><polygon class="cls-1" points="213.76 342.82 217.74 338.73 221.72 334.66 240.66 334.66 240.94 347.94 213.89 348.51 213.76 342.82"/><polygon class="cls-1" points="213.89 348.51 240.94 347.84 240.95 348.23 213.89 348.54 213.89 348.51"/><path class="cls-1" d="M227.42,348.55c0-.07,0-.12,0-.17,0,.05,0,.11,0,.17Z"/><polygon class="cls-1" points="214.02 356.87 241.08 356.39 241.09 357 214.03 357.47 214.02 356.87"/><polygon class="cls-1" points="214.01 356.08 241.07 355.69 241.08 356.45 214.02 356.82 214.01 356.08"/><rect class="cls-1" x="213.98" y="353.43" width="27.06" height="1.38" transform="translate(-5.72 3.74) rotate(-.93)"/><rect class="cls-1" x="214" y="354.79" width="27.06" height="1.09" transform="translate(-5.84 3.81) rotate(-.95)"/><path class="cls-1" d="M227.56,357.37s0-.09,0-.13c0,.04,0,.09,0,.13Z"/><polygon class="cls-1" points="214.03 357.57 241.09 357.16 241.1 357.86 214.04 358.27 214.03 357.57"/><polygon class="cls-1" points="213.93 351.58 240.99 351.08 241.01 352.02 213.95 352.47 213.93 351.58"/><path class="cls-1" d="M227.46,351.23s0-.02,0-.02c0,0,0,.01,0,.02Z"/><polygon class="cls-1" points="213.97 353.67 241.02 353.02 241.03 353.14 213.97 353.72 213.97 353.67"/><path class="cls-1" d="M213.93,351.23l27.06-.34c0,.15,0,.29,0,.44h-13.53l-13.53,.12v-.22Z"/><polygon class="cls-1" points="213.95 352.45 241.01 352.03 241.03 353.09 213.97 353.53 213.95 352.45"/><polygon class="cls-1" points="456.4 587.49 452.01 530.19 494.35 258.95 655.74 259.73 666.68 300.4 666.68 319.46 674.79 318.37 687.12 395.05 686.39 412.58 704.91 410.27 731.13 530.14 723.67 587.49 456.4 587.49"/><path class="cls-1" d="M853.93,548.66l-3.36,42.43h-137.17l-17.02-253.89,9.66-75.85h11.92c64.98,0,111.69,2.18,143.73,13,31.44,10.62,49.34,29.54,59.87,63.27l.03,.09c10.79,35.39,3.79,57.33-3.97,69.5-2.25,3.53-4.7,6.47-7.13,8.92l76.01,84.01-5.97,55.28-102.94,39.07-23.66-45.84Z"/><polygon class="cls-1" points="570.16 145.8 579.78 204.27 617.06 204.27 621.94 173.83 622.45 173.83 629.36 127.51 629.36 127.51 638.71 262.49 717.97 262.49 726.06 223.97 665.16 21.93 604.05 14.98 595.01 98.6 580.89 21.37 513.96 24.99 478.8 223.65 478.8 262.49 570.16 262.75 570.16 145.8"/><path class="cls-1" d="M76.73,253.73c57.3,16.75,117.07,7.93,156.43-13.24l5.04,22.01h96.22l13.83-99.88h26.46l25.26,99.88h74.57l2.46-38.52L376.17,18.03l-38.54-3.61-102.21,197.86-.31-17.28c.19-.21,.29-.33,.29-.33l-.45-8.66h0s-5.27-102.43-5.27-102.43l-31.19,.97,25.27-15.75,1.06-33.71s-17.18-19.28-66.04-21.22c-48.78-1.94-101.92,25.45-117.56,58.36-7.81,15.99-20.79,47.53-18.49,77.72l-.27,.03s-4.37,86.6,54.27,103.74Zm58.35-167.21l-4.32,58.76c-15.19,1.96-30.31,.18-37.97-11.43,.23-2.02,.58-4.15,1.07-6.41,9.92-46.01,34.28-58.63,62.24-58.63s42.38,15.75,42.38,15.75l-63.41,1.96Z"/><path class="cls-1" d="M947.82,262.75l10.08-38.77-28.39-85.41-24.62,2.79,3.71-26.68-13.66-50.82-72.65,8.96-2.57-13.47h0l58.93,1.34,4.56-22.49-9.23-23.77-126.38-.55-6.96,37.79-14.59,208.38,221.76,2.71Zm-120.97-112.53l-1.98-15.31,80.03,6.45-78.05,8.86Z"/><path class="cls-1" d="M227.94,394.54c.1-4.92,.09-9.86-.01-14.79-1.45-72.03-22.5-107.21-94.78-107.21-43.37,0-81.46,31.38-109.4,113.04-14.45,42.91-13.43,78.8,2.16,104.16l20.46,40.99s33.98,31.51,98.93,27,91.49-47.81,82.73-162.37c-.02-.28-.05-.54-.07-.81Zm-70.93-46.09c10.34,0,19.54,7.05,25.48,18.02-3.94,29.14-20.89,41.21-38.6,40.47-7.79-.49-14.64-4.66-19.36-11.14,0-26.15,14.54-47.35,32.47-47.35Z"/><polygon class="cls-1" points="468.93 275.57 397.68 275.57 368.15 375.96 352.41 306.95 341.28 275.57 235.89 275.57 243.01 321.52 301.34 573.96 394.25 573.96 465.62 322.94 468.93 275.57"/><path class="cls-1" d="M227.83,373.54c-.01-.83-.03-1.72-.04-2.65,.01,.86,.03,1.74,.04,2.65Z"/><path class="cls-1" d="M227.86,375.55c0-.57-.02-1.18-.03-1.83,0,.6,.02,1.21,.03,1.83Z"/><path class="cls-1" d="M227.78,370.89c0-.54-.02-1.07-.03-1.58,0,.54,.02,1.07,.03,1.58Z"/><path class="cls-1" d="M227.83,373.72c0-.06,0-.12,0-.17,0,.06,0,.12,0,.17Z"/><path class="cls-1" d="M227.76,369.31c-.02-1.01-.03-2.05-.05-3.11,.02,.99,.03,2.02,.05,3.11Z"/><path class="cls-1" d="M227.63,361.8c0-.59-.02-1.18-.03-1.76,0,.56,.02,1.15,.03,1.76Z"/><path class="cls-1" d="M227.61,360.04c0-.45-.01-.88-.02-1.29,0,.43,.01,.86,.02,1.29Z"/><path class="cls-1" d="M227.88,377.12c0-.53-.02-1.05-.03-1.57,0,.57,.02,1.1,.03,1.57Z"/><path class="cls-1" d="M227.71,366.2c-.03-1.59-.05-3.05-.07-4.4,.02,1.46,.05,2.94,.07,4.4Z"/><path class="cls-1" d="M227.93,379.66c0-.06,0-.11,0-.17,0,.07,0,.13,0,.17Z"/><path class="cls-1" d="M227.93,379.71s0-.03,0-.05c0,.02,0,.03,0,.05Z"/><path class="cls-1" d="M227.93,379.74s0-.02,0-.03c0,.02,0,.03,0,.03Z"/><path class="cls-1" d="M227.92,379.49c0-.12,0-.29,0-.5,0,.17,0,.33,0,.5Z"/><path class="cls-1" d="M227.58,358.75c0-.23,0-.46-.01-.69,0,.23,0,.45,.01,.69Z"/><path class="cls-1" d="M227.89,377.2s0-.06,0-.09c0,.03,0,.06,0,.09Z"/><path class="cls-1" d="M227.91,378.99c0-.27,0-.55-.01-.82,0,.32,0,.59,.01,.82Z"/><path class="cls-1" d="M227.89,377.66c0-.15,0-.3,0-.46,0,.16,0,.31,0,.46Z"/><path class="cls-1" d="M227.9,378.18c0-.16,0-.33,0-.52,0,.17,0,.34,0,.52Z"/><path class="cls-1" d="M227.43,349.21c0-.13,0-.26,0-.36,0,.11,0,.23,0,.36Z"/><path class="cls-1" d="M227.44,349.59s0-.1,0-.14c0,.05,0,.09,0,.14Z"/><path class="cls-1" d="M227.44,349.8c0-.07,0-.14,0-.21,0,.07,0,.14,0,.21Z"/><path class="cls-1" d="M227.43,349.45c0-.09,0-.17,0-.24,0,.08,0,.16,0,.24Z"/><path class="cls-1" d="M227.44,350.16c0-.12,0-.24,0-.36,0,.11,0,.23,0,.36Z"/><path class="cls-1" d="M227.45,350.39c0-.08,0-.16,0-.23,0,.07,0,.15,0,.23Z"/><path class="cls-1" d="M227.42,348.84c0-.11,0-.21,0-.29,0,.08,0,.18,0,.29Z"/><path class="cls-1" d="M227.46,351.2c0-.29,0-.56-.01-.82,0,.25,0,.52,.01,.82Z"/><path class="cls-1" d="M227.41,348.22s0-.04,0,0h0Z"/><path class="cls-1" d="M227.42,348.38c0-.08,0-.13,0-.16,0,.03,0,.09,0,.16Z"/><path class="cls-1" d="M227.42,348.55c0-.07,0-.12,0-.17,0,.05,0,.11,0,.17Z"/><path class="cls-1" d="M227.56,357.24c0-.21,0-.41,0-.6,0,.2,0,.4,0,.6Z"/><path class="cls-1" d="M227.55,356.63c0-.25,0-.5-.01-.75,0,.24,0,.49,.01,.75Z"/><path class="cls-1" d="M227.52,354.81c0-.48-.02-.94-.02-1.38,0,.43,.01,.89,.02,1.38Z"/><path class="cls-1" d="M227.54,355.88c0-.37-.01-.73-.02-1.07,0,.35,.01,.71,.02,1.07Z"/><path class="cls-1" d="M227.56,357.37s0-.09,0-.13c0,.04,0,.09,0,.13Z"/><path class="cls-1" d="M227.57,358.06c0-.24,0-.47-.01-.7,0,.23,0,.46,.01,.7Z"/><path class="cls-1" d="M227.48,352.24c0-.33-.01-.63-.01-.91,0,.29,0,.59,.01,.91Z"/><path class="cls-1" d="M227.46,351.23s0-.02,0-.02c0,0,0,.01,0,.02Z"/><path class="cls-1" d="M227.5,353.43s0-.08,0-.12c0,.04,0,.08,0,.12Z"/><path class="cls-1" d="M227.46,351.33s0-.07,0-.1c0,.03,0,.07,0,.1Z"/><path class="cls-1" d="M227.5,353.31c0-.37-.01-.73-.02-1.07,0,.33,.01,.69,.02,1.07Z"/><path class="cls-1" d="M672.2,427.98l1.34-32.14-10.02-62.3-10.38,1.4v-32.76l-7.8-28.98-139.43-.67-40.3,258.19,3.31,43.23h242.85l5.62-43.23-23.07-105.5-22.13,2.76Zm-19.05-93.04l-70.91,9.57-1.25-14.25,72.16,4.68Zm-74.41,89.82l79.57,4.95-79.1,9.86-.47-14.8Z"/><path class="cls-1" d="M890.31,414s36.32-13.36,18.35-72.33c-17.57-56.26-55.64-66.78-190.69-66.78l-7.99,62.72,16.08,239.95h112.01l3.8-48.05-13.61-60.09,55.82,108.14,83.89-31.84,4.43-41-82.09-90.73Z"/></g><g><polygon class="cls-2" points="495.29 214.03 478.8 223.65 478.8 262.49 570.16 262.75 570.16 145.8 579.78 204.27 617.06 204.27 629.36 127.51 638.71 262.49 717.97 262.49 726.06 223.97 636.01 44.45 591.51 121.72 555.72 65.19 495.29 214.03"/><polygon class="cls-2" points="282.4 197.8 229.38 223.97 238.2 262.49 334.42 262.49 348.25 162.62 374.71 162.62 399.97 262.49 474.54 262.49 476.99 223.97 354.96 54.97 282.4 197.8"/><path class="cls-2" d="M45.15,147.28l-22.7,2.71s-4.37,86.6,54.27,103.74c58.63,17.14,119.87,7.52,159.16-14.73l-.94-52.97-44.86-73.74-55.01-25.76-5.94,80.91s-45.19,6.01-35.27-39.99c9.92-46.01,34.28-58.63,62.24-58.63s42.38,15.75,42.38,15.75l25.27-15.75,1.06-33.71-104.05-5.98L49.97,119.48l-4.81,27.8Z"/><path class="cls-3" d="M224.82,35.09l-26.09,21.58c-15.72-16.79-50.79-12.82-65.07-9.99-14.61,2.56-51.81,24.97-45.62,73.4,6.43,50.3,86.7,11.79,86.7,11.79l.22-15.99-39.47,5.71-.41-35.07,94.6-2.93,5.72,111.09s-31.39,38.11-123.25,27.34C-14.22,207.48,24.86,105.72,41.22,72.23,56.86,39.32,110,11.94,158.78,13.87c48.86,1.94,66.04,21.22,66.04,21.22Z"/><polygon class="cls-2" points="747.61 13.87 740.65 51.66 726.06 260.04 947.82 262.75 957.9 223.97 817.92 158.73 824.86 134.91 904.9 141.36 908.61 114.68 814.62 76.92 819.73 59.34 878.66 60.68 883.22 38.19 747.61 13.87"/><path class="cls-3" d="M348.83,138.57l-17.49,85.41h-101.96L337.63,14.43l38.54,3.61,100.83,205.94h-75.38l-27.68-88.15-25.11,2.74Zm5.04-66.91l-9.73,40.63h21.64l-11.92-40.63Z"/><path class="cls-2" d="M228.01,395.35c-8.76-114.56-94.46-90.21-94.46-90.21L19.91,477.74l26.45,52.99s33.98,31.51,98.93,27,91.49-47.81,82.73-162.37Zm-71,47.81c-17.94,0-32.47-21.2-32.47-47.36s14.54-47.36,32.47-47.36,32.47,21.2,32.47,47.36-14.54,47.36-32.47,47.36Z"/><path class="cls-3" d="M478.8,223.65l35.16-198.65,66.93-3.63,14.12,77.23,9.04-83.62,61.11,6.95,60.9,202.05-78.32-.33-14.38-122.98-10.92,73.16h-36.45s-13.39-71.97-14.93-74.94-1.6,124.76-1.6,124.76h-90.66Z"/><path class="cls-3" d="M826.85,150.22l102.66-11.65,28.39,85.41h-226.13l15.84-210.1,126.38,.55,9.24,23.77-67.32,1.13,6.39,33.49,72.65-8.96,13.66,50.82-86.8-3.29,5.03,38.83Z"/><polygon class="cls-2" points="235.89 275.57 243.01 321.51 301.34 573.96 394.25 573.96 465.62 322.94 468.93 275.57 360.88 406.96 369.9 383.62 352.41 306.95 341.28 275.57 235.89 275.57"/><path class="cls-3" d="M227.93,379.74s-1.16-70.99,0,0c1.61,74.7-18.82,150.98-108.83,150.98-90.42,0-124.65-58.16-95.36-145.15,27.94-81.66,66.03-113.04,109.4-113.04,72.28,0,93.33,35.18,94.78,107.21Zm-84.03,27.19c17.81,.74,34.86-11.45,38.67-40.96,4.12-33.14-7.53-42.26-24.83-42.96-16.88-1.05-30.49,9.47-38.39,39.36-6.08,23.2,6.78,43.45,24.54,44.56Z"/><polygon class="cls-2" points="465.62 530.73 468.93 573.96 711.78 573.96 717.41 530.73 579.21 439.57 578.74 424.77 672.09 430.57 673.54 395.85 567.45 342.03 569.25 329.5 653.15 334.94 653.15 302.19 626.99 280.79 531.37 302.98 465.62 530.73"/><path class="cls-3" d="M397.68,275.57h71.25l-79.09,255.15h-90.82l-63.14-255.15h105.39l21.35,119.17,35.06-119.17Z"/><path class="cls-3" d="M579.21,439.57l115.12-14.35,23.07,105.5h-251.78s40.3-258.19,40.3-258.19l139.43,.67,7.8,28.98-74.49,1.38,3.58,40.94,81.28-10.97,10.02,62.3-95.86-4.04,1.53,47.77Z"/><polygon class="cls-2" points="717.97 274.9 709.98 337.62 726.06 577.57 838.07 577.57 841.87 529.52 828.26 469.42 884.08 577.57 967.97 545.73 972.4 504.73 844.84 386.33 880.47 333.11 717.97 274.9"/><path class="cls-3" d="M882.34,545.73l-48.83-96.26-12.79-13.31,21.15,93.36h-111.86l-12.04-254.62c135.04,0,173.12,10.51,190.69,66.78,17.97,58.97-18.35,72.33-18.35,72.33l82.09,90.73-90.05,41Zm-76.5-223.06l5.16,39.35s43.32,5.76,39.41-21.05c-3.84-26.32-44.57-18.3-44.57-18.3Z"/></g></g></g></svg>