<?xml version="1.0" encoding="UTF-8"?><svg id="Layer_2" xmlns="http://www.w3.org/2000/svg" viewBox="0 0 1558.38 375.52"><defs><style>.cls-1{fill:#fff;}.cls-2{fill:#d14019;}.cls-3{fill:#ff7955;}</style></defs><g id="Layer_1-2"><g><path class="cls-1" d="M1558.38,293.41l-6.48-74.37,3.24-4.87-24.15-205.04-109.97,2.47-3.68,83.95-17.22-85.08-81.95,.51-94.5-.5-13.28,177.53c-4.16-13.93-10.57-26.82-19.02-38.1-13.39-17.86-31.56-31.69-54.11-41.21l21.55-29.5,8.98-33.87-9.08-5.93c-24.99-16.31-48.93-24.58-71.15-24.58-32.73,0-60.38,18.8-72.17,49.13-3.01,7.85-4.92,15.96-5.68,24.1-.2,1.63-.3,3.14-.3,4.6-.09,2.29-.08,4.61,.02,6.91,.19,23.98,1.81,40.71,9.42,55.12,4.16,7.87,9.93,14.61,17.75,20.55-3.05,2.12-5.1,5.1-6.68,7.4-1.64,2.38-3.74,5.65-6.44,10-4.33,6.99-10.14,16.7-17.26,28.85-7.33,12.51-14.58,25.1-19.17,33.12L892.35,17.69l-60.32-7.32-75.29,202.95c0-.05,0-.11,0-.16,.89-31.06-11.19-57.59-32.89-73.59,4.76-14.39,5.82-32.49,3.12-54.05-.48-20.08-5.24-44.67-36.24-58.89-23.05-10.57-59.57-15.15-122.11-15.29-.91,0-1.64-.01-2.18-.01-.78,0-1.2,0-1.2,0l-12.77,.16-33.17,221.25-3.24-57.79-12.08,1.73-1.14-16.51,1.86-84.81-3.42,.53-1.25-18.34-3.24-45.75-156.23-.88-72.03,256.93-42.35-92,81.12-74.74-14.09-42.09L215.41,0l-41.42,56.06-22.53-46.16-18.72,2.07-52.5,5.82L0,308.7l52.79,52.94h98.22l1.29-28.06,10.47,41.95,118.02-17.96,4.49,10.08h241.61v-.16s7.31,.16,7.31,.16c.41,0,41.32,.89,82.35,.89h0c24.2,0,43.76-.3,58.12-.9,24.08-1,42.93-10.53,56.23-28.35l3.76,19.36h124.33l8.96-125.59,10.11-1.42,22.23,126.22,104.89,6.8v-22.8c18.1,6.57,48.97,15.63,81.52,15.63h0c11.07,0,21.66-1.07,31.46-3.17,32.85-7.04,59.56-22.78,77.23-45.52,2.42-3.12,4.65-6.34,6.68-9.67l-.13,1.79v56.57h124.92l.45-41.3h.44s.31-39.73,.31-39.73l4.77,87.19h115.13l5.01-28.07,90.1,18.68,15.33-60.83Z"/><polygon class="cls-2" points="16.78 306.28 59.02 348.64 136.68 348.64 142.02 232.48 174.02 360.64 266.02 346.64 264.21 296.27 201.02 180.64 290.02 98.64 280.48 70.16 144.02 146.64 159.02 56.64 146.02 27.64 16.78 306.28"/><polygon class="cls-2" points="273.75 306.86 295.02 354.64 511.02 354.64 502.01 194.1 393.04 209.66 396.92 183 490.02 194.14 487.84 162.51 411.58 106.92 412.99 88.98 487.02 88.98 485.08 60.59 482.83 28.7 375.02 52.64 273.75 306.86"/><polygon class="cls-2" points="739.24 305.6 747.02 345.64 845.02 345.64 853.85 221.89 890.32 216.76 913.02 345.64 990.17 350.64 990.17 304.92 841.97 28.68 739.24 305.6"/><path class="cls-2" d="M523.76,306.19l10.75,48.45s91.54,2,139.52,0,66.04-43.98,66.04-119.99-48.05-75.79-48.05-75.79c0,0,27.96-8.25,19.98-70.24s-146.57-60.29-146.57-60.29l-41.66,277.86Z"/><path class="cls-2" d="M995.18,272.6v51.04s63.84,30,119.84,18,98.2-53.99,85.6-122.49-111.6-103.51-111.6-103.51c0,0-5-37,37-15,0,0,19-26,19-26l5.48-20.66s-126.1-6.01-126.1,40.83,2.63,66.83,46.63,83.83c63.66,24.6,6,43,6,43l-81.84,50.96Z"/><path class="cls-2" d="M1237.57,27.56l-20.64,275.91v41h95.08l1.74-158.46h24.26l9,164.63h88.37l8.37-46.94L1327.7,27.92l-3.68,31.72s-8,30-8,40-42-10.66-42-10.66l-36.45-61.43Z"/><polygon class="cls-2" points="1435.38 28.28 1432.02 105.02 1450.02 241.64 1450.02 321.64 1532.02 338.64 1543.22 294.2 1521.02 240.38 1539.59 212.45 1498.02 80.64 1435.38 28.28"/><g><path class="cls-3" d="M146.02,27.6l-17.12,116.73L218.45,23.13l62.04,47.03-84.25,78.45,67.97,147.66-100.52,20.29-30.48-118.21-23.68,108.54-92.75-.6L91.99,33.59l54.03-5.99Z"/><path class="cls-3" d="M393.04,209.66l108.97-15.57,3,112.14-231.26,.63L351.94,27.97l130.89,.74,2.26,31.89-69.99,1.54-3.51,44.79,77.74-12.01-1.49,67.6-88.35-4.25-6.45,51.41Z"/><path class="cls-3" d="M682.27,141.34c30.53,2.71,60.81,27.17,59.48,73.38-1.81,62.67-31.85,90.96-77.02,91.08l-140.96,.38L565.42,28.33c121.43,0,145.76,16.4,146.57,60.29,.53,33.55-14.59,48.39-29.73,52.72Zm-48.45-76.27l-4.11,47.86s44.11,3.06,46.07-24.29c1.94-26.99-41.96-23.57-41.96-23.57Zm66.9,142.83c1.23-31.76-51.98-24.08-51.98-24.08l-1.41,56.03s51.87,7.31,53.38-31.94Z"/><path class="cls-3" d="M857.63,193.51l-14.92,111.81-103.47,.28L841.97,28.68l39.74,4.82,108.46,271.42-76.26,.21-30.78-115.27-25.5,3.65Zm2.94-88.5l-8.6,53.84,22.1-.03-13.51-53.81Z"/><path class="cls-3" d="M1128.21,89.12s-31.14-13.66-38.61,2.31c-7.53,16.1,6.38,20.32,31.5,29.18,52.63,17.82,76.19,56.78,79.51,98.53,3.39,42.58-33.56,85.3-98.54,85.48-65.43,.18-106.9-32.03-106.9-32.03,0,0,47.9-84.19,50.1-83,2.18,.8,42.73,29.76,55.43,12.35,12.22-17.66,8.86-32.37-34.62-48.1-42.83-15.63-47.8-53.56-36.71-82.52,13.12-33.75,55.82-59.98,121.11-17.36l-22.28,35.15Z"/><path class="cls-3" d="M1314.02,151.58l-1.17,151.63-95.93,.26,20.64-275.91,69.59,.37-1.43,62.99,26.95,1.51-4.97-64.5,60.16-.37,55.9,276.15-90.95,.25-7.12-150.05-31.67-2.31Z"/><path class="cls-3" d="M1468.29,281.44l-4.09-59.55,73.27,6.35,5.75,65.96-74.93-12.76Zm-7.92-76.49l-24.99-176.67,82.3-1.85,21.91,186.01-79.22-7.5Z"/></g></g></g></svg>